<svg width="68" height="68" viewBox="0 0 68 68" fill="none" xmlns="http://www.w3.org/2000/svg">
<mask id="mask0" mask-type="alpha" maskUnits="userSpaceOnUse" x="0" y="1" width="68" height="67">
<path d="M0 41.1049C0 40.6335 0.166522 40.1773 0.470178 39.8167L32.4702 1.81666C33.2693 0.867693 34.7307 0.867693 35.5298 1.81666L67.5298 39.8167C67.8335 40.1773 68 40.6335 68 41.1049V66C68 67.1046 67.1046 68 66 68H2C0.895432 68 0 67.1046 0 66V41.1049Z" fill="#41B883"/>
</mask>
<g mask="url(#mask0)">
<path d="M0 41.1049C0 40.6335 0.166522 40.1773 0.470178 39.8167L32.4702 1.81666C33.2693 0.867693 34.7307 0.867693 35.5298 1.81666L67.5298 39.8167C67.8335 40.1773 68 40.6335 68 41.1049V66C68 67.1046 67.1046 68 66 68H2C0.895432 68 0 67.1046 0 66V41.1049Z" fill="#41B883"/>
</g>
</svg>
