<svg width="68" height="68" viewBox="0 0 68 68" fill="none" xmlns="http://www.w3.org/2000/svg">
<mask id="mask0" mask-type="alpha" maskUnits="userSpaceOnUse" x="0" y="0" width="68" height="68">
<path d="M1.41551 35.4155C0.633958 34.6339 0.634538 33.3666 1.41681 32.5857L32.647 1.41292C33.4287 0.632589 34.6951 0.633753 35.4754 1.41552L66.5884 32.5857C67.3682 33.367 67.3676 34.6323 66.5871 35.4129L35.4142 66.5858C34.6332 67.3668 33.3668 67.3668 32.5858 66.5858L1.41551 35.4155Z" fill="#41B883"/>
</mask>
<g mask="url(#mask0)">
<path d="M1.41551 35.4155C0.633958 34.6339 0.634538 33.3666 1.41681 32.5857L32.647 1.41292C33.4287 0.632589 34.6951 0.633753 35.4754 1.41552L66.5884 32.5857C67.3682 33.367 67.3676 34.6323 66.5871 35.4129L35.4142 66.5858C34.6332 67.3668 33.3668 67.3668 32.5858 66.5858L1.41551 35.4155Z" fill="#41B883"/>
</g>
</svg>
